<?xml version="1.0" encoding="UTF-8"?>
<svg width="200px" height="46px" viewBox="0 0 200 46" version="1.1" xmlns="http://www.w3.org/2000/svg" xmlns:xlink="http://www.w3.org/1999/xlink">
    <defs>
        <polygon id="path-1" points="6.65797469e-21 0.0196141304 6.65797469e-21 23.531625 17.07258 23.531625 17.07258 0.0196141304"></polygon>
        <polygon id="path-3" points="24.3292544 24.0239348 24.3292544 0.478173913 0.445190524 0.478173913 0.445190524 24.0239348 24.3292544 24.0239348"></polygon>
    </defs>
    <g id="Symbols" stroke="none" stroke-width="1" fill="none" fill-rule="evenodd">
        <g id="Nav-bar---tall" transform="translate(-59.000000, -30.000000)">
            <g id="Nav">
                <g id="Group" transform="translate(59.000000, 30.000000)">
                    <g id="Logo-/-Landmark-/-Green" transform="translate(0.000000, 1.000000)">
                        <g id="Page-1">
                            <g id="Group-3" transform="translate(0.000000, 0.590185)">
                                <mask id="mask-2" fill="white">
                                    <use xlink:href="#path-1"></use>
                                </mask>
                                <g id="Clip-2"></g>
                                <path d="M6.92486933,0.0196141304 L0.167425436,0.0196141304 L0.520158603,0.837929348 C0.922018953,1.76434239 1.36170723,2.80716848 1.36170723,5.86178804 L1.36170723,15.776462 C1.36170723,20.6036902 0.989323192,21.4151576 0.358530175,22.7636902 L-9.82543641e-05,23.531625 L14.1116848,23.531625 L17.07258,17.8254293 L15.7982209,18.2578207 C13.2092185,19.132875 10.6678693,19.7604293 6.31077955,20.1253207 C6.31765736,19.0286902 6.4458793,6.07260326 6.4458793,6.07260326 C6.48174214,2.86097283 6.91799152,1.89494022 7.42449277,0.781679348 L7.76936559,0.0196141304 L6.92486933,0.0196141304 Z" id="Fill-1" fill="#007E48" mask="url(#mask-2)"></path>
                            </g>
                            <path d="M30.013908,9.10032065 C30.5867309,10.2067337 31.7274641,12.4459728 32.2270875,13.4281467 L27.6022546,13.4281467 C28.1623045,12.4254293 29.4101349,10.1901033 30.013908,9.10032065 L30.013908,9.10032065 Z M30.3184965,0.489179348 L29.7992222,0.489179348 L19.4270002,17.947712 C17.2098905,21.6783098 16.4557883,22.4173859 15.6643494,23.1995054 L14.7250377,24.1220054 L23.0982746,24.1220054 L23.0516037,23.5404293 C23.0422696,23.4440707 23.0422696,23.3462446 23.0422696,23.2425489 C23.0422696,21.645538 24.0046711,19.8929837 24.3259628,19.2918424 C24.3259628,19.2918424 25.1645638,17.7711359 25.5202446,17.145538 L34.1558207,17.145538 C34.3994915,17.6268424 35.5603668,19.8768424 35.5603668,19.8768424 C36.4756062,21.6220598 36.5969504,22.6883641 36.5969504,23.5829837 L36.5969504,24.1283641 L44.6120501,24.0510815 L43.8461574,23.1652663 C42.8670526,22.0559185 41.6742446,20.6824402 39.7720401,17.1856467 L30.6437185,0.489179348 L30.3184965,0.489179348 Z" id="Fill-4" fill="#007E48"></path>
                            <path d="M137.431671,9.10032065 C137.998107,10.2067337 139.142279,12.4459728 139.64485,13.4281467 L135.021,13.4281467 C135.574663,12.4254293 136.824459,10.1901033 137.431671,9.10032065 L137.431671,9.10032065 Z M137.737242,0.489179348 L137.214528,0.489179348 L126.845254,17.947712 C124.625688,21.6783098 123.87699,22.4173859 123.079164,23.1995054 L122.140835,24.1220054 L130.514072,24.1220054 L130.460032,23.5404293 C130.460032,23.4440707 130.453154,23.3462446 130.453154,23.2425489 C130.453154,21.645538 131.416047,19.8929837 131.744217,19.2918424 C131.744217,19.2918424 132.582818,17.7711359 132.934568,17.145538 L141.577022,17.145538 C141.818728,17.6268424 142.978621,19.8768424 142.978621,19.8768424 C143.887474,21.6220598 144.007835,22.6883641 144.007835,23.5829837 L144.007835,24.1283641 L152.026374,24.0510815 L151.252129,23.1652663 C150.293167,22.0559185 149.092007,20.6824402 147.183907,17.1856467 L138.055586,0.489179348 L137.737242,0.489179348 Z" id="Fill-6" fill="#007E48"></path>
                            <path d="M68.8668768,0.579228261 L63.0320414,0.579228261 L63.2663781,1.29140217 C63.6652908,2.50151087 63.9836349,3.46069565 63.9836349,7.58944565 L63.9836349,16.4241196 C62.3845451,14.7092283 52.9408269,4.55390217 52.9408269,4.55390217 C50.9418419,2.39781522 50.6878544,1.87982609 50.2285152,0.92748913 L50.0806424,0.62325 L49.722014,0.579228261 L41.6332234,0.579228261 L43.0854229,1.56873913 C44.56759,2.57145652 45.265196,3.12955435 46.4221411,4.3631413 L46.4221411,17.6537935 C46.4221411,18.0049891 46.3956125,21.1197717 45.5668369,23.3991196 L45.3079367,24.1220543 L52.5286499,24.1220543 L52.1936025,23.363413 C51.2513431,21.2498804 51.1806,17.9541196 51.1806,16.9944457 L51.1806,9.51759783 C52.7629865,11.2285761 61.5090988,20.7123261 61.5090988,20.7123261 C62.3776673,21.6490109 63.2398494,22.662 63.6623431,23.7767283 L63.8003905,24.1220543 L69.8995302,24.1220543 L69.581186,23.3771087 C69.2127322,22.4805326 68.7455327,21.364337 68.7455327,17.9810217 L68.7455327,5.91123913 C68.7455327,3.6543913 69.0245751,2.5181413 69.3900813,1.2708587 L69.5944504,0.579228261 L68.8668768,0.579228261 Z" id="Fill-8" fill="#007E48"></path>
                            <path d="M77.8611304,16.216337 L77.8611304,7.29166304 C77.8611304,6.3588913 77.8684995,5.0216087 78.0040905,3.80856522 C86.5723623,5.04215217 87.2670207,10.5673696 87.2670207,12.2622065 C87.2670207,15.7614457 84.8234347,20.0237283 78.0080207,20.7960652 C77.8611304,19.3717174 77.8611304,18.4487283 77.8611304,16.216337 L77.8611304,16.216337 Z M72.6728087,0.646336957 L71.5728511,0.716771739 L71.9118287,1.7865 C72.2743873,2.90905435 72.8206815,4.60095652 72.8206815,7.26133696 L72.8206815,16.7548696 C72.8206815,20.840087 72.3176192,22.0766087 71.7914671,23.3801413 L71.4991603,24.1221522 L78.6958012,24.1221522 C87.9985244,24.1221522 93.0178486,18.1645435 93.0178486,12.5595978 C93.0178486,9.93296739 92.0529908,7.48584783 90.2244771,5.48677174 C86.226507,1.14818478 80.5734421,0.549978261 75.0569509,0.549978261 L72.6728087,0.646336957 Z" id="Fill-10" fill="#007E48"></path>
                            <path d="M98.4441424,0.579228261 L91.0765389,0.579228261 C91.0765389,0.579228261 94.2182222,3.52770652 94.5110202,3.80846739 L94.5110202,17.5902065 C94.5110202,21.0801522 93.8291349,22.4414022 93.3712696,23.3399348 L92.9748132,24.1220543 L101.02725,24.1220543 L100.618511,23.3325978 C99.6315464,21.4411304 99.5509778,19.2175435 99.5509778,18.5792283 L99.5509778,8.70172826 C101.047392,10.2733043 107.984641,17.54325 107.984641,17.54325 C107.984641,17.54325 114.842796,10.2933587 116.345105,8.71248913 L116.345105,18.0147717 C116.345105,20.2740652 116.019883,21.8617826 115.239252,23.3291739 L114.819706,24.1220543 L122.988574,24.1220543 L122.558711,23.3272174 C121.422399,21.1941196 121.422399,19.0634674 121.422399,17.6537935 L121.422399,6.59993478 C121.422399,3.57759783 122.324374,2.66145652 123.367836,1.60591304 L124.279636,0.689771739 L123.001347,0.666293478 L117.515314,0.666293478 L117.350738,0.913793478 C116.612848,2.04955435 116.288117,2.39096739 115.554157,3.15401087 C115.554157,3.15401087 109.574397,9.42075 107.984641,11.0852609 C107.280649,10.3427609 101.133856,3.86129348 101.133856,3.86129348 C99.7425738,2.41444565 99.3603643,1.74238043 98.9339404,0.877108696 L98.7870501,0.579228261 L98.4441424,0.579228261 Z" id="Fill-12" fill="#007E48"></path>
                            <path d="M158.066512,3.6577663 C162.049252,4.16988587 163.518646,6.12445109 163.518646,7.85988587 C163.518646,10.6141793 160.45704,11.5792337 158.066512,12.1725489 L158.066512,3.6577663 Z M158.042439,0.578690217 L152.123597,0.645701087 L152.387901,1.36129891 C152.639923,2.05684239 153.061926,3.21999457 153.061926,5.82119022 L153.061926,17.7706467 C153.061926,19.5584185 152.938616,21.2072772 152.364811,23.4494511 L152.197779,24.1224946 L158.988138,24.1224946 L158.783769,23.4308641 C158.09304,21.1030924 158.066512,20.445212 158.066512,18.7303207 L158.066512,14.6186902 C162.92519,20.0607554 164.548352,21.5907554 167.875245,24.0183098 L168.018205,24.1224946 L173.120554,24.1224946 L172.223492,23.2097772 C169.389836,20.3146141 166.225063,17.0687446 163.881205,13.7093967 C167.757831,11.7704837 168.629347,9.30379891 168.629347,7.52825543 C168.629347,6.06086413 167.969078,4.60032065 166.768409,3.42053804 C164.852941,1.53885326 161.754981,0.528798913 158.042439,0.578690217 L158.042439,0.578690217 Z" id="Fill-14" fill="#007E48"></path>
                            <g id="Group-18" transform="translate(172.436409, 0.101054)">
                                <mask id="mask-4" fill="white">
                                    <use xlink:href="#path-3"></use>
                                </mask>
                                <g id="Clip-17"></g>
                                <path d="M21.8705372,0.478173913 L14.7544648,0.478173913 L14.6331207,0.87926087 C14.4395596,1.54154348 14.3049511,1.97295652 12.7220733,3.57388043 C12.7147042,3.57681522 8.69462693,7.73148913 6.83025037,9.65426087 L6.83025037,6.58888043 C6.83025037,3.62377174 7.20902095,2.7311087 7.8427616,1.24708696 L8.16159701,0.485021739 L7.33969925,0.478173913 L0.579799002,0.544695652 L0.874562095,1.27741304 C1.41103092,2.63817391 1.75344738,4.4396413 1.75344738,5.87279348 L1.75344738,17.5825761 C1.75344738,19.6085543 1.41103092,21.5342609 0.733567082,23.2853478 L0.445190524,24.021 L7.95673666,24.021 L7.7224,23.3117609 C7.45318304,22.5056739 6.83025037,20.357413 6.83025037,17.8530652 L6.83025037,12.752413 C8.25149975,14.26725 13.1313027,19.4813804 13.1313027,19.4813804 C15.2133127,21.6198587 15.5527815,22.6543696 15.8814424,23.653663 L15.9988564,24.0239348 L24.3293526,23.9843152 L23.211218,23.0417609 C21.6155671,21.6834457 21.3006618,21.3459457 20.5347691,20.5339891 C20.5347691,20.5339891 13.2521556,12.7656196 11.5995172,11.000837 C12.2219586,10.3723043 16.0047516,6.54877174 16.0047516,6.54877174 C18.0445122,4.446 20.0562703,2.78833696 22.1628439,1.4808913 L23.76439,0.478173913 L21.8705372,0.478173913 Z" id="Fill-16" fill="#007E48" mask="url(#mask-4)"></path>
                            </g>
                            <path d="M97.9111616,35.3595326 C137.194239,35.3595326 172.247466,39.6457826 195.43697,44.6119239 C171.775845,33.7321957 123.294194,30.7533913 97.9111616,30.7533913 C72.5183037,30.7533913 24.0420569,33.7321957 0.37552818,44.6119239 C23.5679796,39.6457826 58.6226803,35.3595326 97.9111616,35.3595326" id="Fill-19" fill="#F9B233"></path>
                        </g>
                    </g>
                </g>
            </g>
        </g>
    </g>
</svg>