<?xml version="1.0" encoding="UTF-8"?>
<svg width="160" height="40" viewBox="0 0 401 91" version="1.1" xmlns="http://www.w3.org/2000/svg" xmlns:xlink="http://www.w3.org/1999/xlink">
    <defs></defs>
    <g id="Symbols" stroke="none" stroke-width="1" fill="none" fill-rule="evenodd">
        <g id="Logo-/-Landmark-/-White" transform="translate(0.000000, -1.000000)" fill="#FFFFFF">
            <g id="Page-1" transform="translate(0.000000, 1.000000)">
                <path d="M14.0958,0.2467 L0.3408,0.2467 L1.0588,1.9197 C1.8768,3.8137 2.7718,5.9457 2.7718,12.1907 L2.7718,32.4607 C2.7718,42.3297 2.0138,43.9887 0.7298,46.7457 L-0.0002,48.3157 L28.7248,48.3157 L34.7518,36.6497 L32.1578,37.5337 C26.8878,39.3227 21.7148,40.6057 12.8458,41.3517 C12.8598,39.1097 13.1208,12.6217 13.1208,12.6217 C13.1938,6.0557 14.0818,4.0807 15.1128,1.8047 L15.8148,0.2467 L14.0958,0.2467 Z" id="Fill-1"></path>
                <path d="M61.0943,17.6051 C62.2603,19.8671 64.5823,24.4451 65.5993,26.4531 L56.1853,26.4531 C57.3253,24.4031 59.8653,19.8331 61.0943,17.6051 L61.0943,17.6051 Z M61.7143,0.0001 L60.6573,0.0001 L39.5443,35.6931 C35.0313,43.3201 33.4963,44.8311 31.8853,46.4301 L29.9733,48.3161 L47.0173,48.3161 L46.9223,47.1271 C46.9033,46.9301 46.9033,46.7301 46.9033,46.5181 C46.9033,43.2531 48.8623,39.6701 49.5163,38.4411 C49.5163,38.4411 51.2233,35.3321 51.9473,34.0531 L69.5253,34.0531 C70.0213,35.0371 72.3843,39.6371 72.3843,39.6371 C74.2473,43.2051 74.4943,45.3851 74.4943,47.2141 L74.4943,48.3291 L90.8093,48.1711 L89.2503,46.3601 C87.2573,44.0921 84.8293,41.2841 80.9573,34.1351 L62.3763,0.0001 L61.7143,0.0001 Z" id="Fill-4"></path>
                <path d="M279.7467,17.6051 C280.8997,19.8671 283.2287,24.4451 284.2517,26.4531 L274.8397,26.4531 C275.9667,24.4031 278.5107,19.8331 279.7467,17.6051 L279.7467,17.6051 Z M280.3687,0.0001 L279.3047,0.0001 L258.1977,35.6931 C253.6797,43.3201 252.1557,44.8311 250.5317,46.4301 L248.6217,48.3161 L265.6657,48.3161 L265.5557,47.1271 C265.5557,46.9301 265.5417,46.7301 265.5417,46.5181 C265.5417,43.2531 267.5017,39.6701 268.1697,38.4411 C268.1697,38.4411 269.8767,35.3321 270.5927,34.0531 L288.1847,34.0531 C288.6767,35.0371 291.0377,39.6371 291.0377,39.6371 C292.8877,43.2051 293.1327,45.3851 293.1327,47.2141 L293.1327,48.3291 L309.4547,48.1711 L307.8787,46.3601 C305.9267,44.0921 303.4817,41.2841 299.5977,34.1351 L281.0167,0.0001 L280.3687,0.0001 Z" id="Fill-6"></path>
                <path d="M140.1808,0.1842 L128.3038,0.1842 L128.7808,1.6402 C129.5928,4.1142 130.2408,6.0752 130.2408,14.5162 L130.2408,32.5782 C126.9858,29.0722 107.7628,8.3102 107.7628,8.3102 C103.6938,3.9022 103.1768,2.8432 102.2418,0.8962 L101.9408,0.2742 L101.2108,0.1842 L84.7458,0.1842 L87.7018,2.2072 C90.7188,4.2572 92.1388,5.3982 94.4938,7.9202 L94.4938,35.0922 C94.4938,35.8102 94.4398,42.1782 92.7528,46.8382 L92.2258,48.3162 L106.9238,48.3162 L106.2418,46.7652 C104.3238,42.4442 104.1798,35.7062 104.1798,33.7442 L104.1798,18.4582 C107.4008,21.9562 125.2038,41.3452 125.2038,41.3452 C126.9718,43.2602 128.7268,45.3312 129.5868,47.6102 L129.8678,48.3162 L142.2828,48.3162 L141.6348,46.7932 C140.8848,44.9602 139.9338,42.6782 139.9338,35.7612 L139.9338,11.0852 C139.9338,6.4712 140.5018,4.1482 141.2458,1.5982 L141.6618,0.1842 L140.1808,0.1842 Z" id="Fill-8"></path>
                <path d="M158.4889,32.1534 L158.4889,13.9074 C158.4889,12.0004 158.5039,9.2664 158.7799,6.7864 C176.2209,9.3084 177.6349,20.6044 177.6349,24.0694 C177.6349,31.2234 172.6609,39.9374 158.7879,41.5164 C158.4889,38.6044 158.4889,36.7174 158.4889,32.1534 L158.4889,32.1534 Z M147.9279,0.3214 L145.6889,0.4654 L146.3789,2.6524 C147.1169,4.9474 148.2289,8.4064 148.2289,13.8454 L148.2289,33.2544 C148.2289,41.6064 147.2049,44.1344 146.1339,46.7994 L145.5389,48.3164 L160.1879,48.3164 C179.1239,48.3164 189.3409,36.1364 189.3409,24.6774 C189.3409,19.3074 187.3769,14.3044 183.6549,10.2174 C175.5169,1.3474 164.0099,0.1244 152.7809,0.1244 L147.9279,0.3214 Z" id="Fill-10"></path>
                <path d="M200.3863,0.1842 L185.3893,0.1842 C185.3893,0.1842 191.7843,6.2122 192.3803,6.7862 L192.3803,34.9622 C192.3803,42.0972 190.9923,44.8802 190.0603,46.7172 L189.2533,48.3162 L205.6443,48.3162 L204.8123,46.7022 C202.8033,42.8352 202.6393,38.2892 202.6393,36.9842 L202.6393,16.7902 C205.6853,20.0032 219.8063,34.8662 219.8063,34.8662 C219.8063,34.8662 233.7663,20.0442 236.8243,16.8122 L236.8243,35.8302 C236.8243,40.4492 236.1623,43.6952 234.5733,46.6952 L233.7193,48.3162 L250.3473,48.3162 L249.4723,46.6912 C247.1593,42.3302 247.1593,37.9742 247.1593,35.0922 L247.1593,12.4932 C247.1593,6.3142 248.9953,4.4412 251.1193,2.2832 L252.9753,0.4102 L250.3733,0.3622 L239.2063,0.3622 L238.8713,0.8682 C237.3693,3.1902 236.7083,3.8882 235.2143,5.4482 C235.2143,5.4482 223.0423,18.2602 219.8063,21.6632 C218.3733,20.1452 205.8613,6.8942 205.8613,6.8942 C203.0293,3.9362 202.2513,2.5622 201.3833,0.7932 L201.0843,0.1842 L200.3863,0.1842 Z" id="Fill-12"></path>
                <path d="M321.7496,6.4781 C329.8566,7.5251 332.8476,11.5211 332.8476,15.0691 C332.8476,20.7001 326.6156,22.6731 321.7496,23.8861 L321.7496,6.4781 Z M321.7006,0.1831 L309.6526,0.3201 L310.1906,1.7831 C310.7036,3.2051 311.5626,5.5831 311.5626,10.9011 L311.5626,35.3311 C311.5626,38.9861 311.3116,42.3571 310.1436,46.9411 L309.8036,48.3171 L323.6256,48.3171 L323.2096,46.9031 C321.8036,42.1441 321.7496,40.7991 321.7496,37.2931 L321.7496,28.8871 C331.6396,40.0131 334.9436,43.1411 341.7156,48.1041 L342.0066,48.3171 L352.3926,48.3171 L350.5666,46.4511 C344.7986,40.5321 338.3566,33.8961 333.5856,27.0281 C341.4766,23.0641 343.2506,18.0211 343.2506,14.3911 C343.2506,11.3911 341.9066,8.4051 339.4626,5.9931 C335.5636,2.1461 329.2576,0.0811 321.7006,0.1831 L321.7006,0.1831 Z" id="Fill-14"></path>
                <path d="M395.5182,0.1842 L381.0332,0.1842 L380.7862,1.0042 C380.3922,2.3582 380.1182,3.2402 376.8962,6.5132 C376.8812,6.5192 368.6982,15.0132 364.9032,18.9442 L364.9032,12.6772 C364.9032,6.6152 365.6742,4.7902 366.9642,1.7562 L367.6132,0.1982 L365.9402,0.1842 L352.1802,0.3202 L352.7802,1.8182 C353.8722,4.6002 354.5692,8.2832 354.5692,11.2132 L354.5692,35.1532 C354.5692,39.2952 353.8722,43.2322 352.4932,46.8122 L351.9062,48.3162 L367.1962,48.3162 L366.7192,46.8662 C366.1712,45.2182 364.9032,40.8262 364.9032,35.7062 L364.9032,25.2782 C367.7962,28.3752 377.7292,39.0352 377.7292,39.0352 C381.9672,43.4072 382.6582,45.5222 383.3272,47.5652 L383.5662,48.3222 L400.5232,48.2412 L398.2472,46.3142 C394.9992,43.5372 394.3582,42.8472 392.7992,41.1872 C392.7992,41.1872 377.9752,25.3052 374.6112,21.6972 C375.8782,20.4122 383.5782,12.5952 383.5782,12.5952 C387.7302,8.2962 391.8252,4.9072 396.1132,2.2342 L399.3732,0.1842 L395.5182,0.1842 Z" id="Fill-16"></path>
                <path d="M199.3014,71.2906 C279.2634,71.2906 350.6154,80.0536 397.8184,90.2066 C349.6554,67.9636 250.9694,61.8736 199.3014,61.8736 C147.6134,61.8736 48.9384,67.9636 0.7644,90.2066 C47.9734,80.0536 119.3284,71.2906 199.3014,71.2906" id="Fill-19"></path>
            </g>
        </g>
    </g>
</svg>