<?xml version="1.0" encoding="UTF-8" standalone="no"?>
<svg
   xmlns:dc="http://purl.org/dc/elements/1.1/"
   xmlns:cc="http://creativecommons.org/ns#"
   xmlns:rdf="http://www.w3.org/1999/02/22-rdf-syntax-ns#"
   xmlns:svg="http://www.w3.org/2000/svg"
   xmlns="http://www.w3.org/2000/svg"
   viewBox="0 0 823.70667 332.64001"
   height="332.64001"
   width="823.70667"
   xml:space="preserve"
   id="svg2"
   version="1.1"><metadata
     id="metadata8"><rdf:RDF><cc:Work
         rdf:about=""><dc:format>image/svg+xml</dc:format><dc:type
           rdf:resource="http://purl.org/dc/dcmitype/StillImage" /></cc:Work></rdf:RDF></metadata><defs
     id="defs6"><clipPath
       id="clipPath62"
       clipPathUnits="userSpaceOnUse"><path
         id="path60"
         d="m 189.668,2429.53 c 0,0 156.078,-99.33 244.977,-263.6 56.441,-104.37 68.925,-197.04 78.613,-227.47 173.949,-3.17 247.418,-82.41 347.922,-262.87 22.019,-39.52 45.086,-79.81 67.476,-118.23 0,0 0.129,-0.28 -0.097,-0.38 -0.176,-0.05 -0.301,0.15 -0.301,0.15 -31.625,48.71 -68.028,102.98 -99.934,146.54 -72.144,98.21 -165.785,190.2 -308.629,193.6 -33.527,0.77 -43.465,0.64 -56.121,0.55 -13.578,-0.11 -30.179,-0.25 -82.152,0.85 155.023,-86.06 166.98,-299.5 265.215,-438.2 90.199,-127.34 169.504,-232.99 398.173,-277.25 32.33,-6.24 108,-17.95 143.5,-15.86 -47.28,39.97 -84.28,95.72 -125.89,167.14 -11.34,20.72 -63.94,120.53 -108.451,261.25 -43.66,137.88 -86.875,307.48 -108.289,396.83 -43.789,183.01 -116.383,349.82 -332.422,414.98 -64.86,19.47 -188.883,22.69 -263.125,22.69 -36.074,0 -60.465,-0.72 -60.465,-0.72" /></clipPath><clipPath
       id="clipPath68"
       clipPathUnits="userSpaceOnUse"><path
         id="path66"
         d="M -67.5898,1219.95 232.836,2633.34 1445.57,2375.57 1145.14,962.18 Z" /></clipPath><linearGradient
       id="linearGradient76"
       spreadMethod="pad"
       gradientTransform="matrix(226.225,1064.3,-1064.3,226.225,579.359,1281.99)"
       gradientUnits="userSpaceOnUse"
       y2="0"
       x2="1"
       y1="0"
       x1="0"><stop
         id="stop70"
         offset="0"
         style="stop-opacity:1;stop-color:#479f3b" /><stop
         id="stop72"
         offset="0.00396635"
         style="stop-opacity:1;stop-color:#479f3b" /><stop
         id="stop74"
         offset="1"
         style="stop-opacity:1;stop-color:#97d322" /></linearGradient></defs><g
     transform="matrix(1.3333333,0,0,-1.3333333,0,332.64)"
     id="g10"><g
       transform="scale(0.1)"
       id="g12"><path
         id="path14"
         style="fill:#ffffff;fill-opacity:1;fill-rule:nonzero;stroke:none"
         d="M 400.766,426.102 H 201.078 l 159.82,273.878 z m 7.515,370.886 c -5.992,6.012 -14.258,9.063 -24.543,9.063 -9.961,0 -20.097,-2.02 -30.129,-5.922 -2.07,-0.82 -3.82,-2.289 -4.941,-4.168 L 1.39063,213.77 c -1.824224,-3.059 -1.851568,-6.891 -0.10157,-9.989 1.77344,-3.113 5.06641,-5.051 8.63672,-5.051 H 62.4492 c 3.5235,0 6.793,1.86 8.5899,4.942 L 164.18,362.441 H 411.699 L 435.168,207.18 c 0.746,-4.86 4.914,-8.45 9.832,-8.45 h 55.172 c 2.898,0 5.691,1.282 7.566,3.481 1.895,2.23 2.696,5.199 2.246,8.07 L 418.918,773 c -1.453,10.281 -5.023,18.371 -10.637,23.988" /><path
         id="path16"
         style="fill:#ffffff;fill-opacity:1;fill-rule:nonzero;stroke:none"
         d="M 931.051,529.77 883.547,311.461 c -1.652,-7.652 -7.867,-15.91 -18.481,-24.621 -11.507,-9.461 -25.961,-17.449 -42.961,-23.77 -16.925,-6.289 -34.898,-9.429 -53.425,-9.429 -39.016,0 -65.004,13.031 -79.457,39.839 -15.028,27.782 -16.852,68.348 -5.469,120.559 11.336,52.09 31.105,92.09 58.691,118.852 27.559,26.66 61.387,39.668 103.453,39.668 37.84,0 65.75,-14.028 85.153,-42.789 m 80.959,96.609 c -3.47,0.699 -7.49,1.051 -12.283,1.051 -13.379,0 -25.688,-4.399 -36.622,-13.11 -6.07,-4.82 -10.988,-10.609 -14.683,-17.23 -4.117,4.531 -9.481,9.269 -16.25,14.379 -8.613,6.449 -19.969,11.941 -33.852,16.383 -13.73,4.398 -30.652,6.589 -50.277,6.589 -35.898,0 -70.996,-8.91 -104.297,-26.531 -33.254,-17.601 -61.863,-43.269 -85.055,-76.148 -23.043,-32.801 -39.867,-73.012 -49.98,-119.602 -14.902,-68.351 -9.684,-122.719 15.527,-161.621 25.664,-39.617 68.129,-59.66 126.348,-59.66 25.008,0 48.5,4 69.875,11.961 14.449,5.422 29.352,13.379 44.535,23.738 -6.344,-27.406 -13.258,-51.398 -20.644,-71.476 -22.45,-62.7036 -71.723,-93.184 -150.684,-93.184 -34.93,0 -62.063,7.2539 -81.359,22.0429 -10.336,6.6875 -17.801,13.8008 -22.141,21.2191 -1.43,2.441 -3.852,4.172 -6.617,4.691 -2.824,0.57 -5.696,-0.101 -7.965,-1.801 C 568.094,102.379 561.605,96.5391 556.234,90.6016 549.996,83.6602 546.328,77.4492 545.078,71.5781 542.734,60.8398 546.152,50.0313 555.59,39.0195 566.82,27.1406 584,17.8008 608.141,10.4805 631.23,3.51953 657.242,0 685.43,0 c 107.047,0 180.738,42.3203 219.008,125.84 11.683,26.269 22.195,60.769 31.304,102.609 l 84.008,386.071 c 0.57,2.601 0.04,5.289 -1.4,7.539 -1.43,2.25 -3.75,3.793 -6.34,4.32" /><path
         id="path18"
         style="fill:#ffffff;fill-opacity:1;fill-rule:nonzero;stroke:none"
         d="m 1692.28,786.469 c -11.08,7.261 -26.28,13.703 -45.18,19.172 -18.87,5.488 -42.34,8.558 -70,9.16 -56.12,0 -104.98,-14.449 -145.14,-42.992 -40.57,-28.75 -66.63,-68.5 -77.41,-118.047 -6.2,-28.543 -5.77,-53.852 1.27,-75.242 7.06,-21.77 21.46,-40.668 42.76,-56.149 20.62,-15.031 51.7,-29.383 95.09,-43.883 30.9,-10.117 53.47,-20.476 67.03,-30.84 12.7,-9.726 20.39,-21.039 23.49,-34.546 3.19,-14.282 2.57,-32 -1.92,-52.633 -7.57,-34.758 -24.34,-62.11 -49.78,-81.25 -25.69,-19.289 -59.67,-29.11 -101.03,-29.11 -28.83,0 -55.02,5.2 -77.79,15.352 -22.44,10.008 -39.74,23.738 -51.45,40.777 -1.65,2.364 -4.19,3.91 -7.06,4.262 -2.83,0.301 -5.72,-0.621 -7.82,-2.52 -18.75,-17 -28.63,-30.378 -31.18,-42.019 -1.67,-7.68 -1.2,-18.941 10.39,-29.18 11.76,-14.551 31.6,-26.859 59.06,-36.57 27.21,-9.723 58.99,-14.633 94.39,-14.633 60.81,0 113.14,15.981 155.45,47.512 42.51,31.648 70.2,75.73 82.26,131.039 6.42,29.551 6.22,56.242 -0.65,79.332 -6.94,23.539 -21.15,43.809 -42.16,60.187 -20.3,15.852 -48.48,29.633 -83.91,41.063 -32.78,10.141 -57.37,20.648 -73.09,31.129 -14.68,9.859 -24.35,20.898 -28.71,32.828 -4.42,12.113 -4.8,27.062 -1.03,44.344 6.67,30.508 21.35,53.797 44.89,71.168 23.49,17.3 54.65,26.058 92.56,26.058 48.58,0 84.21,-15.367 108.95,-46.949 1.87,-2.43 4.74,-3.82 7.84,-3.82 h 9.64 c 2.69,0 5.26,1.07 7.16,3.019 15.2,15.75 23.19,27.313 25.16,36.34 2.65,12.16 -0.64,23 -9.73,31.434 -4.37,3.898 -11.69,9.168 -22.35,16.207" /><path
         id="path20"
         style="fill:#ffffff;fill-opacity:1;fill-rule:nonzero;stroke:none"
         d="m 1897.49,247.5 c -39.57,0 -65.7,13.039 -79.88,39.801 -14.73,27.758 -16.37,68.621 -4.84,121.5 10.96,50.429 30.97,90.769 59.53,119.879 28.31,28.929 61.59,42.961 101.79,42.961 39.66,0 65.83,-12.352 80.06,-37.77 14.65,-26.293 16.15,-66.953 4.41,-120.851 -11.86,-54.469 -31.8,-96.321 -59.19,-124.27 -27.16,-27.738 -60.48,-41.25 -101.88,-41.25 m 87.73,386.949 c -38.9,0 -75.54,-9.258 -108.99,-27.48 -33.36,-18.18 -62.44,-44.821 -86.48,-79.16 -23.92,-34.161 -40.87,-73.629 -50.4,-117.411 -14.86,-68.308 -9.49,-123.25 15.97,-163.296 25.96,-40.84 70.72,-61.532 133.06,-61.532 61.82,0 114.74,20.371 157.25,60.539 42.07,39.7 70.93,94.442 85.78,162.692 14.95,68.801 9.96,124.019 -14.88,164.039 -25.41,40.89 -69.6,61.609 -131.31,61.609" /><path
         id="path22"
         style="fill:#ffffff;fill-opacity:1;fill-rule:nonzero;stroke:none"
         d="m 2335.46,840.172 c -2.74,0 -6.09,-0.301 -10.48,-1.004 -4.07,-0.617 -7.31,-3.688 -8.16,-7.688 L 2200.4,296.609 c -5.88,-27.121 -7.93,-46.539 -6.19,-59.449 1.88,-14.449 7.8,-25.441 17.58,-32.531 9.29,-6.809 22.15,-10.277 38.24,-10.277 13.64,0 26.84,1.57 39.28,4.687 3.66,0.93 6.51,3.852 7.28,7.52 l 4.02,18.371 c 0.6,2.769 0,5.691 -1.69,7.992 -1.65,2.269 -4.22,3.758 -7.07,4.039 -13.13,1.277 -18.65,4.199 -20.69,5.82 -3,2.321 -4.67,6.34 -5.17,12.207 -0.62,7.793 0.55,18.571 3.47,32.121 l 108.02,496.34 c 3.82,17.563 1.82,31.512 -6.02,41.52 -7.86,10.082 -20,15.203 -36,15.203" /><path
         id="path24"
         style="fill:#ffffff;fill-opacity:1;fill-rule:nonzero;stroke:none"
         d="m 2769.78,627.43 h -3.49 c -4.69,0 -8.71,-3.27 -9.74,-7.789 l -66.82,-307.282 c -0.78,-3.449 -4.4,-10.808 -20.25,-21.429 -13.58,-9.16 -30.95,-17.289 -51.73,-24.258 -20.54,-6.891 -40.76,-10.391 -60.06,-10.391 -73.12,0 -75.92,35.258 -76.87,47.289 -1.97,15.7 -0.17,36.668 5.42,62.328 l 44.01,202.223 c 4.15,19.09 2.05,33.969 -6.26,44.277 -8.02,9.981 -21.35,15.032 -39.6,15.032 h -3.52 c -4.69,0 -8.73,-3.27 -9.73,-7.789 l -54.28,-249.52 c -7.49,-34.402 -10.81,-60.68 -10.16,-79.781 -0.82,-30.512 9.76,-55.102 31.41,-73.102 20.95,-17.5 51.08,-26.359 89.55,-26.359 30.78,0 60.91,5.043 89.57,14.961 19.64,6.808 37.75,15.648 54.15,26.351 l -4.65,-21.382 c -0.67,-2.93 0.08,-6.047 1.98,-8.368 1.87,-2.382 4.71,-3.722 7.74,-3.722 h 50.77 c 4.69,0 8.71,3.269 9.74,7.871 l 78.46,360.648 c 4.27,19.551 2.15,34.723 -6.27,45.16 -8.01,9.981 -21.26,15.032 -39.37,15.032" /><path
         id="path26"
         style="fill:#ffffff;fill-opacity:1;fill-rule:nonzero;stroke:none"
         d="m 3142.7,627.43 h -124.17 l 15.1,69.398 c 3.79,17.551 1.75,31.512 -6.09,41.492 -7.87,10.078 -19.98,15.18 -35.95,15.18 -3.02,0 -6.24,-0.332 -9.94,-1.031 -3.94,-0.75 -7.04,-3.739 -7.86,-7.641 l -89.95,-413.25 c -7.04,-32.277 -9.38,-57.09 -7.19,-75.988 4,-31.93 24.09,-70 97.19,-70 16.65,0 33.52,2.648 50.18,7.91 16.55,5.219 31.95,12.738 45.73,22.32 15.78,10.93 23.67,19.692 25.54,28.352 2.15,9.816 -2.65,21.527 -15.53,38.027 -1.72,2.199 -4.29,3.571 -7.06,3.789 -2.75,0.211 -5.55,-0.738 -7.57,-2.648 -7.66,-7.149 -15.35,-13.301 -22.86,-18.09 -18.58,-11.789 -37.07,-17.75 -54.9,-17.75 -15.26,0 -25.72,3.789 -32,11.609 -8.87,11.063 -10.26,31.082 -4.08,59.512 l 54.13,248.668 h 128.54 c 4.69,0 8.74,3.27 9.74,7.84 l 8.73,40.269 c 0.63,2.922 -0.07,5.993 -1.97,8.34 -1.9,2.34 -4.74,3.692 -7.76,3.692" /><path
         id="path28"
         style="fill:#ffffff;fill-opacity:1;fill-rule:nonzero;stroke:none"
         d="m 3318.52,775.43 c -12.96,0 -24.99,-4.821 -35.82,-14.328 -10.64,-9.211 -17.46,-20.622 -20.35,-33.782 -3,-13.929 -0.88,-26.16 6.36,-36.34 7.42,-10.492 18.6,-16.031 32.26,-16.031 12.9,0 24.94,4.789 35.8,14.301 10.63,9.27 17.47,20.668 20.29,33.828 3.07,13.883 0.9,26.09 -6.34,36.301 -7.44,10.48 -18.57,16.051 -32.2,16.051" /><path
         id="path30"
         style="fill:#ffffff;fill-opacity:1;fill-rule:nonzero;stroke:none"
         d="m 3266.16,627.43 h -2.63 c -4.71,0 -8.73,-3.27 -9.76,-7.789 L 3183.5,296.578 c -6.01,-27.59 -8.09,-47.359 -6.39,-60.289 1.9,-14.508 7.94,-25.391 17.95,-32.301 9.29,-6.418 21.77,-9.617 37.17,-9.617 13.65,0 26.86,1.57 39.27,4.68 3.7,0.898 6.54,3.84 7.34,7.539 l 3.99,18.34 c 0.63,2.8 0,5.718 -1.7,7.992 -1.67,2.297 -4.24,3.758 -7.11,4.019 -13.7,1.297 -19.1,4.34 -21.12,5.989 -2.94,2.539 -4.54,6.922 -4.74,13.332 -0.25,8.508 1.12,19.75 4.12,33.429 l 60.96,280.168 c 3.94,18.071 1.82,32.301 -6.24,42.34 -8.14,10.11 -21.92,15.231 -40.84,15.231" /><path
         id="path32"
         style="fill:#ffffff;fill-opacity:1;fill-rule:nonzero;stroke:none"
         d="m 3705.22,413.02 c -11.88,-54.469 -31.78,-96.309 -59.21,-124.27 -27.14,-27.73 -60.49,-41.238 -101.86,-41.238 -39.57,0 -65.73,13.008 -79.88,39.797 -14.75,27.75 -16.35,68.589 -4.87,121.492 10.96,50.429 31.03,90.777 59.54,119.89 28.31,28.93 61.59,42.957 101.81,42.957 39.66,0 65.83,-12.359 80.06,-37.769 14.62,-26.289 16.15,-66.961 4.41,-120.859 m -73.34,221.441 c -38.92,0 -75.59,-9.262 -109.02,-27.492 -33.33,-18.199 -62.44,-44.809 -86.45,-79.16 -23.94,-34.149 -40.92,-73.618 -50.43,-117.399 -14.85,-68.308 -9.46,-123.262 16,-163.301 25.96,-40.839 70.7,-61.531 133.04,-61.531 61.86,0 114.76,20.371 157.25,60.512 42.09,39.719 70.92,94.461 85.77,162.711 14.98,68.808 9.99,124 -14.88,164.051 -25.41,40.886 -69.62,61.609 -131.28,61.609" /><path
         id="path34"
         style="fill:#ffffff;fill-opacity:1;fill-rule:nonzero;stroke:none"
         d="m 4222.47,608.559 c -21.07,17.171 -50.93,25.882 -88.7,25.882 -31.3,0 -61.93,-5.16 -91.05,-15.453 -21.16,-7.488 -40.39,-17 -57.26,-28.41 -0.75,8.692 -3.5,15.981 -8.19,21.82 -8.04,9.993 -21.29,15.032 -39.37,15.032 h -3.52 c -4.67,0 -8.71,-3.25 -9.73,-7.821 l -88.98,-408.8 c -0.6,-2.95 0.1,-6.02 2,-8.368 1.9,-2.351 4.74,-3.691 7.74,-3.691 h 50.8 c 4.67,0 8.74,3.219 9.71,7.809 l 65.53,301.171 c 1.48,6.84 4.42,12.379 8.79,16.668 13.53,12.481 32.3,23.122 55.67,31.661 23.54,8.64 46.34,13 67.81,13 73.09,0 75.91,-35.297 76.89,-47.348 1.77,-14.063 -0.31,-34.981 -6.25,-62.32 l -54.12,-248.582 c -0.67,-2.95 0.08,-6.02 1.97,-8.368 1.88,-2.351 4.72,-3.691 7.72,-3.691 h 50.77 c 4.72,0 8.77,3.219 9.76,7.809 l 54.1,248.621 c 7.47,34.3 10.79,60.59 10.14,79.929 0.32,31.082 -10.54,55.801 -32.23,73.45" /><path
         id="path36"
         style="fill:#ffffff;fill-opacity:1;fill-rule:nonzero;stroke:none"
         d="m 4642.83,595.41 c -11.47,12.199 -27.4,21.942 -47.32,28.91 -19.44,6.711 -41.93,10.129 -66.82,10.129 -26.2,0 -51.7,-4.789 -75.78,-14.25 -24.23,-9.57 -44.8,-23.168 -61.3,-40.5 -16.75,-17.64 -27.84,-38.64 -33.06,-62.508 -4.54,-20.89 -4.39,-39.339 0.31,-54.89 4.84,-15.981 14.62,-29.641 29.1,-40.52 13.96,-10.511 37.67,-20.621 72.78,-31 29.66,-7.851 50.08,-15.312 60.66,-22.301 9.63,-6.39 15.72,-13.601 18.62,-22.039 2.92,-8.711 3.15,-19.019 0.62,-30.589 -4.82,-22.133 -15.98,-38.911 -34.15,-51.25 -18.47,-12.512 -41.53,-18.84 -68.5,-18.84 -20.77,0 -40.61,3.988 -58.99,11.898 -18.42,7.871 -33.15,17.309 -43.63,28.02 -1.88,1.922 -4.55,3.191 -7.17,2.992 -2.7,-0.024 -5.3,-1.152 -7.12,-3.102 -8.38,-8.781 -14.65,-15.82 -18.64,-20.89 -4.6,-5.942 -7.47,-11.559 -8.67,-17.129 -1.59,-7.41 -0.82,-18.571 12.36,-30.071 11.71,-9.121 28.71,-16.609 51.93,-22.8 22.62,-6.039 47.15,-9.09 72.91,-9.09 43.87,0 82.77,11.64 115.69,34.66 33.28,23.238 54.5,54.859 63.01,93.98 4.91,22.622 4.87,42.02 -0.17,57.75 -5.12,15.719 -13.56,28.579 -25.12,38.219 -10.86,9.082 -23.77,16.719 -38.34,22.59 -14.06,5.723 -28.34,10.961 -42.76,15.699 -27.46,7.84 -46.59,15.082 -56.8,21.571 -9.21,5.871 -15.3,12.312 -18.13,19.101 -2.84,6.871 -3.29,14.629 -1.27,23.809 4,18.429 14.23,32.511 31.19,43.121 17.61,10.91 38.51,16.449 62.15,16.449 43.09,0 72.3,-15.449 89.22,-47.258 1.75,-3.269 5.12,-5.293 8.79,-5.293 h 7.89 c 3.1,0 6.02,1.473 7.91,3.973 4.97,6.508 9.44,12.609 13.38,18.32 4.62,6.688 7.49,12.86 8.79,18.797 1.88,8.594 0.93,21.672 -13.57,34.332" /><path
         id="path38"
         style="fill:#ffffff;fill-opacity:1;fill-rule:nonzero;stroke:none"
         d="m 1271.48,2430.06 -240.83,-925.42 c 48.88,-123.57 95.41,-226.08 169.31,-293.55 l 264.57,1013.87 2.12,8.38 c 2.7,12.01 4.29,24.24 4.29,36.53 0,96.11 -86.95,158.4 -199.46,160.19" /><path
         id="path40"
         style="fill:#ffffff;fill-opacity:1;fill-rule:nonzero;stroke:none"
         d="M 371.148,1859.24 193.879,1182.19 h 246.492 l 101.383,391.46 c -45.586,129.87 -92.024,229.53 -170.606,285.59" /><path
         id="path42"
         style="fill:#ffffff;fill-opacity:1;fill-rule:nonzero;stroke:none"
         d="m 2204.58,1182.6 -170.65,0.42 c -31.26,0.08 -48.76,8.51 -52.53,25.36 -3.77,16.78 -1.37,41.37 7.04,73.63 -28.78,-28.49 -68.07,-54.85 -118.18,-78.99 -50.13,-24.14 -112.56,-36.13 -187.63,-35.9 -88.7,0.22 -149.78,17.75 -183.26,52.68 -33.4,34.89 -48.98,80.95 -46.56,138.22 1.17,28.53 5.19,59.69 12.08,93.19 6.87,33.65 14.48,66.5 22.97,98.86 l 134.51,516.51 c 2.77,1.25 13.18,2.77 31.2,4.59 17.95,1.8 36.92,2.72 57,2.7 19.92,-0.05 39.44,-2.02 58.56,-5.8 18.92,-3.76 35.27,-10.95 48.76,-21.51 13.45,-10.66 22.74,-25.64 27.71,-44.89 4.94,-19.32 3.42,-44.51 -4.65,-75.51 l -95.21,-365.53 c -7.44,-28.61 -13.23,-54.37 -17.3,-77.39 -4.14,-22.99 -4.34,-42.86 -0.57,-59.69 3.72,-16.82 13.48,-29.91 29.18,-39.24 15.7,-9.41 39.79,-14.1 72.3,-14.16 46.26,-0.14 88.49,9.37 126.59,28.56 38.17,19.2 60.98,43.07 68.38,71.68 l 154.9,594.84 c 2.85,1.25 13.23,2.8 31.25,4.59 17.95,1.82 36.95,2.7 57,2.65 19.94,-0.05 39.39,-2.27 58.26,-6.71 18.87,-4.4 34.88,-12.51 48.11,-24.32 13.13,-11.89 22.09,-28.04 26.68,-48.6 4.68,-20.55 3,-46.39 -5.09,-77.39 L 2204.58,1182.6" /><path
         id="path44"
         style="fill:#ffffff;fill-opacity:1;fill-rule:nonzero;stroke:none"
         d="m 2462.85,1316.3 c -2.27,24.89 -1.15,51.02 3.57,78.39 4.54,27.31 10.41,54.69 17.55,82.05 l 225.35,865.24 29.11,3.59 c 9.04,1.25 18.65,2.09 28.81,2.75 10.18,0.55 20.27,0.92 30.25,0.87 19.98,-0.05 39.5,-1.97 58.59,-5.74 18.98,-3.77 35.18,-11.31 48.51,-22.49 13.33,-11.29 22.54,-26.52 27.51,-45.81 4.95,-19.33 3.45,-44.51 -4.67,-75.54 l -34.05,-130.57 262.52,-0.65 -49.47,-190.2 -262.53,0.68 -103.92,-399.06 c -22.72,-87.05 1.65,-130.56 72.89,-130.76 17.48,-0.05 34.8,2.72 51.88,8.24 17.1,5.57 33.08,11.73 47.95,18.55 14.91,6.79 27.79,13.93 38.42,21.37 10.64,7.44 18.43,13 23.07,16.75 11.71,-27.44 19.87,-51.1 24.74,-70.98 4.82,-19.99 4.94,-38.57 0.43,-56.01 -4.2,-16.15 -14.88,-31.98 -32.08,-47.51 -17.13,-15.48 -39.4,-29.71 -66.51,-42.71 -27.16,-13.01 -58.67,-23.44 -94.51,-31.43 -35.8,-8.07 -73.77,-11.98 -113.79,-11.89 -78.73,0.15 -135.48,15.31 -170.2,45.19 -34.73,29.93 -54.57,69.17 -59.42,117.68" /><path
         id="path46"
         style="fill:#ffffff;fill-opacity:1;fill-rule:nonzero;stroke:none"
         d="m 3545.11,1974.16 c 10.44,11.19 23.97,23.54 40.62,37.22 16.7,13.64 35.23,26.04 55.72,37.2 20.35,11.15 42.49,20.42 66.3,27.81 23.8,7.39 48.21,11.06 73.23,10.98 15.03,-0.05 30.6,-1.27 46.83,-3.84 16.2,-2.55 30.65,-7.24 43.26,-14.08 12.56,-6.89 21.74,-16.25 27.39,-28.06 5.67,-11.88 6.29,-26.44 1.74,-43.84 -6.81,-26.14 -21.79,-57.16 -44.93,-93.14 -23.17,-36.09 -44.84,-66.48 -65.03,-91.29 -16.75,17.45 -34.48,30.88 -53.33,40.19 -18.84,9.36 -42.56,14.11 -71.37,14.23 -38.74,0.05 -74.17,-11.01 -106.19,-33.38 -32.13,-22.29 -52.21,-49 -60.32,-80.08 l -149.59,-574.3 -254.98,0.62 229.69,882.01 23.45,3.67 c 7.83,1.17 16.85,2.12 27.06,2.72 10.09,0.58 22.04,0.9 35.82,0.85 40.02,-0.12 72.63,-7.99 97.96,-23.54 25.36,-15.66 37.6,-39.65 36.67,-71.95" /><path
         id="path48"
         style="fill:#ffffff;fill-opacity:1;fill-rule:nonzero;stroke:none"
         d="m 4059.39,1166.85 c -5.64,-2.43 -17.4,-4.35 -35.25,-5.55 -17.77,-1.12 -36.75,-1.72 -56.67,-1.67 -48.78,0.08 -85.78,10.49 -111.06,31 -25.32,20.63 -29.86,61.94 -13.71,124.16 l 194.27,745.85 c 2.8,1.22 13.21,2.77 31.23,4.59 17.93,1.8 36.98,2.75 56.97,2.67 19.97,0 39.49,-1.97 58.57,-5.74 18.99,-3.82 35.24,-10.98 48.78,-21.55 13.48,-10.65 22.74,-25.63 27.68,-44.88 4.97,-19.32 3.45,-44.51 -4.67,-75.54 z m 312.2,1191.51 c -10.41,-39.74 -32.28,-72.07 -65.58,-96.86 -33.35,-24.79 -68.8,-37.12 -106.27,-37.07 -38.74,0.1 -68,12.61 -87.78,37.57 -19.77,24.91 -24.53,57.22 -14.15,97.06 10.38,39.79 31.96,72.37 64.86,97.76 32.88,25.41 68.7,38.12 107.44,38.02 37.53,-0.1 66.38,-12.95 86.65,-38.47 20.2,-25.57 25.14,-58.26 14.83,-98.01" /><path
         id="path50"
         style="fill:#ffffff;fill-opacity:1;fill-rule:nonzero;stroke:none"
         d="m 4747.93,1334.93 c 31.25,-0.11 59.64,3.26 85.2,10.06 25.52,6.76 48.94,15.1 70.32,25.01 21.35,9.91 40.37,20.67 57.25,32.5 16.8,11.73 32.16,22.65 45.98,32.55 10.09,-18.69 19.53,-42.66 28.22,-71.89 8.58,-29.28 10.55,-53.22 5.68,-71.87 -7.14,-27.32 -29.28,-52.2 -66.38,-74.44 -31.4,-19.88 -73.06,-36.83 -124.89,-51.03 -51.81,-14.13 -110.27,-21.17 -175.3,-21.03 -58.71,0.16 -114.58,7.72 -167.56,22.77 -53.05,15.11 -96.88,41.24 -131.53,78.71 -34.66,37.43 -57.57,87.5 -68.7,150.39 -11.19,62.81 -4.33,142.12 20.62,237.83 20.44,78.37 50.12,145.7 89.29,202.24 39.07,56.47 83.86,103.38 134.16,140.54 50.33,37.18 103.35,64.46 159.17,81.71 55.77,17.28 110.54,25.87 164.39,25.72 69.94,-0.18 126.5,-11.24 169.58,-33.1 43.09,-21.85 75.12,-51.18 96.18,-87.9 21.16,-36.77 32.36,-78.79 33.86,-126.05 1.45,-47.23 -4.67,-97.01 -18.28,-149.23 -1.86,-7.49 -4.19,-16.15 -6.76,-26.09 -2.58,-9.96 -5.64,-20.55 -9.16,-31.68 -3.6,-11.21 -7.02,-22.12 -10.41,-32.63 -3.35,-10.61 -6.54,-18.97 -9.34,-25.21 l -551.3,1.32 c -12.83,-68.35 -6.32,-125.24 19.31,-170.68 25.72,-45.53 79.16,-68.33 160.4,-68.52 m 183.01,378.35 c 15.53,59.61 16.57,108.17 3.15,145.49 -13.43,37.35 -50.11,56.07 -110.09,56.22 -52.58,0.1 -98.36,-17.42 -137.61,-52.8 -39.24,-35.4 -67.15,-84.75 -83.65,-148.16 l 328.2,-0.75" /><path
         id="path52"
         style="fill:#ffffff;fill-opacity:1;fill-rule:nonzero;stroke:none"
         d="m 5449.83,1179.16 -256.91,0.57 228.55,877.49 23.44,3.67 c 7.81,1.2 16.8,2.12 27.04,2.72 10.11,0.6 22.04,0.9 35.77,0.9 39.99,-0.15 72.94,-7.39 98.53,-21.74 25.69,-14.36 37.57,-39.62 35.68,-75.64 28.63,28.55 68.05,54.89 118.15,78.98 50.05,24.14 112.59,36.12 187.58,35.98 88.75,-0.28 149.84,-17.83 183.29,-52.73 33.37,-34.93 48.93,-81.06 46.58,-138.2 -1.2,-28.61 -5.24,-59.69 -12.11,-93.25 -6.86,-33.62 -14.5,-66.57 -22.89,-98.88 l -135.28,-519.3 h -255.11 l 132.44,508.75 c 7.07,27.33 12.78,52.84 17.08,76.48 4.28,23.65 4.57,43.84 0.77,60.61 -3.77,16.86 -13.43,29.91 -29.18,39.3 -15.66,9.36 -39.83,14.11 -72.31,14.15 -46.25,0.11 -88.44,-9.45 -126.61,-28.57 -38.08,-19.23 -60.92,-43.17 -68.35,-71.7 l -156.15,-599.59" /><path
         id="path54"
         style="fill:#ffffff;fill-opacity:1;fill-rule:nonzero;stroke:none"
         d="m 4835.05,638.109 19.45,-54.398 19.55,54.398 h 21.59 V 562.09 h -13.93 v 61.308 l -21.02,-61.308 h -12.21 l -21.17,61.308 V 562.09 h -14 v 76.019 z m -99.43,-12.66 v 12.66 h 64.85 v -12.66 h -24.88 V 562.09 h -15.11 v 63.359 h -24.86" /><g
         id="g56"><g
           clip-path="url(#clipPath62)"
           id="g58"><g
             clip-path="url(#clipPath68)"
             id="g64"><path
               id="path78"
               style="fill:url(#linearGradient76);fill-opacity:1;fill-rule:nonzero;stroke:none"
               d="m 1157,1167 v 1 h -12 v 1 h -11 v 1 h -9 v 1 h -9 v 1 h -7 v 1 h -8 v 1 h -7 v 1 h -7 v 1 h -6 v 1 h -7 v 1 h -6 v 1 h -6 v 1 h -6 v 1 h -5 v 1 h -6 v 1 h -5 v 1 h -5 v 1 h -4 v 1 h -5 v 1 h -4 v 1 h -5 v 1 h -4 v 1 h -4 v 1 h -5 v 1 h -4 v 1 h -3 v 1 h -4 v 1 h -4 v 1 h -3 v 1 h -4 v 1 h -4 v 1 h -3 v 1 h -4 v 1 h -4 v 1 h -3 v 1 h -3 v 1 h -3 v 1 h -3 v 1 h -3 v 1 h -3 v 1 h -3 v 1 h -3 v 1 h -3 v 1 h -3 v 1 h -3 v 1 h -3 v 1 h -2 v 1 h -3 v 1 h -2 v 1 h -3 v 1 h -2 v 1 h -3 v 1 h -2 v 1 h -3 v 1 h -2 v 1 h -3 v 1 h -2 v 1 h -2 v 1 h -3 v 1 h -2 v 1 h -2 v 1 h -2 v 1 h -2 v 1 h -2 v 1 h -3 v 1 h -2 v 1 h -2 v 1 h -2 v 1 h -2 v 1 h -2 v 1 h -2 v 1 h -2 v 1 h -2 v 1 h -2 v 1 h -2 v 1 h -2 v 1 h -1 v 1 h -2 v 1 h -2 v 1 h -2 v 1 h -2 v 1 h -1 v 1 h -2 v 1 h -2 v 1 h -2 v 1 h -1 v 1 h -2 v 1 h -2 v 1 h -2 v 1 h -1 v 1 h -2 v 1 h -1 v 1 h -2 v 1 h -1 v 1 h -2 v 1 h -1 v 1 h -2 v 1 h -1 v 1 h -2 v 1 h -1 v 1 h -2 v 1 h -2 v 1 h -1 v 1 h -2 v 1 h -1 v 1 h -1 v 1 h -2 v 1 h -1 v 1 h -1 v 1 h -2 v 1 h -1 v 1 h -1 v 1 h -2 v 1 h -1 v 1 h -1 v 1 h -2 v 1 h -1 v 1 h -1 v 1 h -2 v 1 h -1 v 1 h -1 v 1 h -2 v 1 h -1 v 1 h -1 v 1 h -1 v 1 h -2 v 1 h -1 v 1 h -1 v 1 h -1 v 1 h -1 v 1 h -1 v 1 h -2 v 1 h -1 v 1 h -1 v 1 h -1 v 1 h -1 v 1 h -1 v 1 h -2 v 1 h -1 v 1 h -1 v 1 h -1 v 1 h -1 v 1 h -1 v 1 h -1 v 1 h -1 v 1 h -1 v 1 h -1 v 1 h -2 v 1 h -1 v 1 h -1 v 1 h -1 v 1 h -1 v 1 h -1 v 1 h -1 v 1 h -1 v 1 h -1 v 1 h -1 v 1 h -1 v 1 h -1 v 1 h -1 v 1 h -1 v 1 h -1 v 1 h -1 v 1 h -1 v 1 h -1 v 1 h -1 v 1 h -1 v 1 h -1 v 1 h -1 v 1 h -1 v 2 h -1 v 1 h -1 v 1 h -1 v 1 h -1 v 1 h -1 v 1 h -1 v 1 h -1 v 1 h -1 v 1 h -1 v 1 h -1 v 1 h -1 v 1 h -1 v 2 h -1 v 1 h -1 v 1 h -1 v 1 h -1 v 1 h -1 v 1 h -1 v 1 h -1 v 2 h -1 v 1 h -1 v 1 h -1 v 1 h -1 v 1 h -1 v 1 h -1 v 2 h -1 v 1 h -1 v 1 h -1 v 1 h -1 v 1 h -1 v 2 h -1 v 1 h -1 v 1 h -1 v 1 h -1 v 2 h -1 v 1 h -1 v 1 h -1 v 1 h -1 v 2 h -1 v 1 h -1 v 1 h -1 v 1 h -1 v 2 h -1 v 1 h -1 v 1 h -1 v 1 h -1 v 2 h -1 v 1 h -1 v 1 h -1 v 2 h -1 v 1 h -1 v 1 h -1 v 1 h -1 v 2 h -1 v 1 h -1 v 1 h -1 v 2 h -1 v 1 h -1 v 1 h -1 v 2 h -1 v 1 h -1 v 1 h -1 v 2 h -1 v 1 h -1 v 1 h -1 v 2 h -1 v 1 h -1 v 2 h -1 v 1 h -1 v 1 h -1 v 2 h -1 v 1 h -1 v 1 h -1 v 2 h -1 v 1 h -1 v 2 h -1 v 1 h -1 v 1 h -1 v 2 h -1 v 1 h -1 v 1 h -1 v 2 h -1 v 1 h -1 v 2 h -1 v 1 h -1 v 1 h -1 v 2 h -1 v 1 h -1 v 2 h -1 v 1 h -1 v 1 h -1 v 2 h -1 v 1 h -1 v 2 h -1 v 1 h -1 v 1 h -1 v 2 h -1 v 1 h -1 v 2 h -1 v 1 h -1 v 2 h -1 v 1 h -1 v 2 h -1 v 1 h -1 v 2 h -1 v 1 h -1 v 2 h -1 v 2 h -1 v 1 h -1 v 2 h -1 v 1 h -1 v 2 h -1 v 2 h -1 v 1 h -1 v 2 h -1 v 2 h -1 v 1 h -1 v 2 h -1 v 2 h -1 v 2 h -1 v 2 h -1 v 1 h -1 v 2 h -1 v 2 h -1 v 2 h -1 v 2 h -1 v 1 h -1 v 2 h -1 v 2 h -1 v 2 h -1 v 2 h -1 v 2 h -1 v 2 h -1 v 2 h -1 v 2 h -1 v 2 h -1 v 2 h -1 v 2 h -1 v 2 h -1 v 2 h -1 v 2 h -1 v 2 h -1 v 2 h -1 v 2 h -1 v 3 h -1 v 2 h -1 v 2 h -1 v 3 h -1 v 2 h -1 v 2 h -1 v 2 h -1 v 3 h -1 v 2 h -1 v 2 h -1 v 2 h -1 v 3 h -1 v 2 h -1 v 2 h -1 v 3 h -1 v 2 h -1 v 2 h -1 v 3 h -1 v 2 h -1 v 3 h -1 v 2 h -1 v 3 h -1 v 2 h -1 v 2 h -1 v 3 h -1 v 2 h -1 v 3 h -1 v 2 h -1 v 3 h -1 v 2 h -1 v 3 h -1 v 2 h -1 v 3 h -1 v 2 h -1 v 3 h -1 v 2 h -1 v 3 h -1 v 2 h -1 v 3 h -1 v 2 h -1 v 3 h -1 v 3 h -1 v 2 h -1 v 3 h -1 v 2 h -1 v 3 h -1 v 2 h -1 v 3 h -1 v 2 h -1 v 3 h -1 v 2 h -1 v 3 h -1 v 2 h -1 v 2 h -1 v 3 h -1 v 2 h -1 v 3 h -1 v 2 h -1 v 2 h -1 v 3 h -1 v 2 h -1 v 3 h -1 v 2 h -1 v 3 h -1 v 2 h -1 v 2 h -1 v 2 h -1 v 3 h -1 v 2 h -1 v 2 h -1 v 2 h -1 v 3 h -1 v 2 h -1 v 2 h -1 v 2 h -1 v 3 h -1 v 2 h -1 v 2 h -1 v 2 h -1 v 2 h -1 v 2 h -1 v 2 h -1 v 2 h -1 v 2 h -1 v 2 h -1 v 2 h -1 v 2 h -1 v 2 h -1 v 2 h -1 v 2 h -1 v 2 h -1 v 2 h -1 v 2 h -1 v 2 h -1 v 2 h -1 v 1 h -1 v 2 h -1 v 2 h -1 v 2 h -1 v 2 h -1 v 1 h -1 v 2 h -1 v 2 h -1 v 2 h -1 v 1 h -1 v 2 h -1 v 2 h -1 v 2 h -1 v 1 h -1 v 2 h -1 v 1 h -1 v 2 h -1 v 1 h -1 v 2 h -1 v 1 h -1 v 2 h -1 v 1 h -1 v 2 h -1 v 1 h -1 v 2 h -1 v 1 h -1 v 2 h -1 v 2 h -1 v 1 h -1 v 1 h -1 v 2 h -1 v 1 h -1 v 1 h -1 v 2 h -1 v 1 h -1 v 1 h -1 v 1 h -1 v 2 h -1 v 1 h -1 v 1 h -1 v 2 h -1 v 1 h -1 v 1 h -1 v 1 h -1 v 2 h -1 v 1 h -1 v 1 h -1 v 1 h -1 v 2 h -1 v 1 h -1 v 1 h -1 v 1 h -1 v 1 h -1 v 1 h -1 v 1 h -1 v 1 h -1 v 1 h -1 v 1 h -1 v 1 h -1 v 1 h -1 v 1 h -1 v 1 h -1 v 1 h -1 v 1 h -1 v 1 h -1 v 1 h -1 v 1 h -1 v 2 h -1 v 1 h -1 v 1 h -1 v 1 h -2 v 1 h -1 v 1 h -1 v 1 h -1 v 1 h -1 v 1 h -2 v 1 h -1 v 1 h -1 v 1 h -1 v 1 h -1 v 1 h -2 v 1 h -1 v 1 h -1 v 1 h -1 v 1 h -1 v 1 h -2 v 1 h -1 v 1 h -1 v 1 h -1 v 1 h -2 v 1 h -1 v 1 h -1 v 1 h -2 v 1 h -1 v 1 h -2 v 1 h -1 v 1 h -2 v 1 h -1 v 1 h -2 v 1 h -1 v 1 h -2 v 1 h -1 v 1 h -2 v 1 h -1 v 1 h -2 v 1 h -2 v 1 h -2 v 1 h -1 v 1 h 38 v -1 h 109 v -1 h 13 v -1 h 10 v -1 h 7 v -1 h 7 v -1 h 7 v -1 h 4 v -1 h 4 v -1 h 5 v -1 h 4 v -1 h 5 v -1 h 3 v -1 h 4 v -1 h 3 v -1 h 3 v -1 h 3 v -1 h 3 v -1 h 4 v -1 h 3 v -1 h 2 v -1 h 3 v -1 h 2 v -1 h 3 v -1 h 2 v -1 h 3 v -1 h 2 v -1 h 3 v -1 h 2 v -1 h 2 v -1 h 2 v -1 h 2 v -1 h 2 v -1 h 2 v -1 h 2 v -1 h 2 v -1 h 2 v -1 h 2 v -1 h 2 v -1 h 2 v -1 h 2 v -1 h 2 v -1 h 1 v -1 h 2 v -1 h 2 v -1 h 1 v -1 h 2 v -1 h 2 v -1 h 2 v -1 h 1 v -1 h 2 v -1 h 2 v -1 h 1 v -1 h 2 v -1 h 1 v -1 h 2 v -1 h 1 v -1 h 2 v -1 h 1 v -1 h 2 v -1 h 1 v -1 h 2 v -1 h 1 v -1 h 1 v -1 h 2 v -1 h 1 v -1 h 1 v -1 h 2 v -1 h 1 v -1 h 1 v -1 h 2 v -1 h 1 v -1 h 1 v -1 h 2 v -1 h 1 v -1 h 1 v -1 h 2 v -1 h 1 v -1 h 1 v -1 h 1 v -1 h 1 v -1 h 2 v -1 h 1 v -1 h 1 v -1 h 1 v -1 h 1 v -1 h 1 v -1 h 2 v -1 h 1 v -1 h 1 v -1 h 1 v -1 h 1 v -1 h 1 v -1 h 1 v -1 h 2 v -1 h 1 v -1 h 1 v -1 h 1 v -1 h 1 v -1 h 1 v -1 h 1 v -1 h 1 v -1 h 1 v -1 h 1 v -1 h 1 v -1 h 1 v -1 h 1 v -1 h 1 v -1 h 1 v -1 h 1 v -1 h 1 v -1 h 1 v -1 h 1 v -1 h 1 v -1 h 1 v -1 h 1 v -1 h 1 v -1 h 1 v -1 h 1 v -1 h 1 v -1 h 1 v -1 h 1 v -1 h 1 v -1 h 1 v -1 h 1 v -1 h 1 v -1 h 1 v -1 h 1 v -1 h 1 v -1 h 1 v -2 h 1 v -1 h 1 v -1 h 1 v -1 h 1 v -1 h 1 v -1 h 1 v -1 h 1 v -1 h 1 v -1 h 1 v -1 h 1 v -2 h 1 v -1 h 1 v -1 h 1 v -1 h 1 v -1 h 1 v -2 h 1 v -1 h 1 v -1 h 1 v -1 h 1 v -1 h 1 v -1 h 1 v -2 h 1 v -1 h 1 v -1 h 1 v -1 h 1 v -1 h 1 v -2 h 1 v -1 h 1 v -1 h 1 v -1 h 1 v -2 h 1 v -1 h 1 v -1 h 1 v -2 h 1 v -1 h 1 v -1 h 1 v -1 h 1 v -2 h 1 v -1 h 1 v -1 h 1 v -1 h 1 v -2 h 1 v -1 h 1 v -1 h 1 v -2 h 1 v -1 h 1 v -1 h 1 v -2 h 1 v -1 h 1 v -1 h 1 v -2 h 1 v -1 h 1 v -1 h 1 v -2 h 1 v -1 h 1 v -1 h 1 v -2 h 1 v -1 h 1 v -2 h 1 v -1 h 1 v -1 h 1 v -2 h 1 v -1 h 1 v -2 h 1 v -1 h 1 v -1 h 1 v -2 h 1 v -1 h 1 v -2 h 1 v -1 h 1 v -1 h 1 v -2 h 1 v -1 h 1 v -2 h 1 v -1 h 1 v -2 h 1 v -1 h 1 v -1 h 1 v -2 h 1 v -1 h 1 v -2 h 1 v -1 h 1 v -2 h 1 v -1 h 1 v -1 h 1 v -2 h 1 v -1 h 1 v -2 h 1 v -1 h 1 v -2 h 1 v -1 h 1 v -2 h 1 v -1 h 1 v -2 h 1 v -1 h 1 v -1 h 1 v -2 h 1 v -1 h 1 v -2 h 1 v -1 h 1 v -2 h 1 v -1 h 1 v -2 h 1 v -1 h 1 v -2 h 1 v -1 h 1 v -2 h 1 v -1 h 1 v -2 h 1 v -1 h 1 v -2 h 1 v -1 h 1 v -2 h 1 v -1 h 1 v -1 h 1 v -2 h 1 v -1 h 1 v -2 h 1 v -1 h 1 v -2 h 1 v -1 h 1 v -2 h 1 v -1 h 1 v -2 h 1 v -1 h 1 v -2 h 1 v -1 h 1 v -2 h 1 v -1 h 1 v -2 h 1 v -1 h 1 v -2 h 1 v -1 h 1 v -2 h 1 v -2 h 1 v -1 h 1 v -2 h 1 v -1 h 1 v 1 h -1 v 2 h -1 v 2 h -1 v 1 h -1 v 2 h -1 v 2 h -1 v 2 h -1 v 1 h -1 v 2 h -1 v 2 h -1 v 2 h -1 v 1 h -1 v 2 h -1 v 2 h -1 v 1 h -1 v 2 h -1 v 2 h -1 v 2 h -1 v 1 h -1 v 2 h -1 v 2 h -1 v 2 h -1 v 1 h -1 v 2 h -1 v 2 h -1 v 2 h -1 v 2 h -1 v 1 h -1 v 2 h -1 v 2 h -1 v 2 h -1 v 1 h -1 v 2 h -1 v 2 h -1 v 2 h -1 v 1 h -1 v 2 h -1 v 2 h -1 v 2 h -1 v 2 h -1 v 1 h -1 v 2 h -1 v 2 h -1 v 2 h -1 v 1 h -1 v 2 h -1 v 2 h -1 v 2 h -1 v 1 h -1 v 2 h -1 v 2 h -1 v 2 h -1 v 2 h -1 v 1 h -1 v 2 h -1 v 2 h -1 v 2 h -1 v 2 h -1 v 1 h -1 v 2 h -1 v 2 h -1 v 2 h -1 v 1 h -1 v 2 h -1 v 2 h -1 v 2 h -1 v 1 h -1 v 2 h -1 v 2 h -1 v 2 h -1 v 1 h -1 v 2 h -1 v 2 h -1 v 1 h -1 v 2 h -1 v 2 h -1 v 1 h -1 v 2 h -1 v 2 h -1 v 2 h -1 v 1 h -1 v 2 h -1 v 2 h -1 v 1 h -1 v 2 h -1 v 2 h -1 v 1 h -1 v 2 h -1 v 2 h -1 v 1 h -1 v 2 h -1 v 1 h -1 v 2 h -1 v 2 h -1 v 1 h -1 v 2 h -1 v 1 h -1 v 2 h -1 v 1 h -1 v 2 h -1 v 2 h -1 v 1 h -1 v 2 h -1 v 1 h -1 v 2 h -1 v 1 h -1 v 2 h -1 v 2 h -1 v 1 h -1 v 1 h -1 v 2 h -1 v 1 h -1 v 2 h -1 v 1 h -1 v 2 h -1 v 1 h -1 v 2 h -1 v 1 h -1 v 2 h -1 v 1 h -1 v 1 h -1 v 2 h -1 v 1 h -1 v 2 h -1 v 1 h -1 v 2 h -1 v 1 h -1 v 1 h -1 v 2 h -1 v 1 h -1 v 1 h -1 v 2 h -1 v 1 h -1 v 1 h -1 v 2 h -1 v 1 h -1 v 1 h -1 v 1 h -1 v 2 h -1 v 1 h -1 v 1 h -1 v 2 h -1 v 1 h -1 v 1 h -1 v 2 h -1 v 1 h -1 v 1 h -1 v 1 h -1 v 1 h -1 v 1 h -1 v 2 h -1 v 1 h -1 v 1 h -1 v 1 h -1 v 1 h -1 v 1 h -1 v 2 h -1 v 1 h -1 v 1 h -1 v 1 h -1 v 1 h -1 v 1 h -1 v 2 h -1 v 1 h -1 v 1 h -1 v 1 h -1 v 1 h -1 v 1 h -1 v 1 h -1 v 1 h -1 v 1 h -1 v 1 h -1 v 1 h -1 v 1 h -1 v 1 h -1 v 1 h -1 v 1 h -1 v 1 h -1 v 1 h -1 v 1 h -1 v 1 h -1 v 1 h -1 v 1 h -1 v 1 h -1 v 1 h -2 v 1 h -1 v 1 h -1 v 1 h -1 v 1 h -1 v 1 h -1 v 1 h -1 v 1 h -1 v 1 h -2 v 1 h -1 v 1 h -1 v 1 h -1 v 1 h -1 v 1 h -1 v 1 h -2 v 1 h -1 v 1 h -1 v 1 h -2 v 1 h -1 v 1 h -1 v 1 h -2 v 1 h -1 v 1 h -2 v 1 h -1 v 1 h -1 v 1 h -2 v 1 h -1 v 1 h -1 v 1 h -2 v 1 h -1 v 1 h -2 v 1 h -2 v 1 h -1 v 1 h -2 v 1 h -2 v 1 h -1 v 1 h -2 v 1 h -2 v 1 h -1 v 1 h -2 v 1 h -1 v 1 h -2 v 1 h -2 v 1 h -2 v 1 h -2 v 1 h -3 v 1 h -2 v 1 h -2 v 1 h -2 v 1 h -2 v 1 h -2 v 1 h -2 v 1 h -2 v 1 h -3 v 1 h -3 v 1 h -2 v 1 h -3 v 1 h -3 v 1 h -2 v 1 h -3 v 1 h -3 v 1 h -3 v 1 h -3 v 1 h -4 v 1 h -4 v 1 h -3 v 1 h -4 v 1 h -3 v 1 h -5 v 1 h -5 v 1 h -5 v 1 h -6 v 1 h -5 v 1 h -7 v 1 h -8 v 1 h -9 v 1 h -9 v 1 h -18 v 1 h -13 v 1 h -1 v 3 h -1 v 4 h -1 v 4 h -1 v 4 h -1 v 4 h -1 v 4 h -1 v 5 h -1 v 4 h -1 v 4 h -1 v 4 h -1 v 5 h -1 v 4 h -1 v 4 h -1 v 4 h -1 v 4 h -1 v 4 h -1 v 3 h -1 v 4 h -1 v 4 h -1 v 3 h -1 v 4 h -1 v 4 h -1 v 3 h -1 v 3 h -1 v 4 h -1 v 3 h -1 v 3 h -1 v 3 h -1 v 4 h -1 v 3 h -1 v 3 h -1 v 3 h -1 v 3 h -1 v 3 h -1 v 3 h -1 v 2 h -1 v 3 h -1 v 3 h -1 v 3 h -1 v 2 h -1 v 3 h -1 v 3 h -1 v 2 h -1 v 3 h -1 v 3 h -1 v 2 h -1 v 2 h -1 v 3 h -1 v 2 h -1 v 3 h -1 v 2 h -1 v 3 h -1 v 2 h -1 v 2 h -1 v 2 h -1 v 3 h -1 v 2 h -1 v 2 h -1 v 3 h -1 v 2 h -1 v 2 h -1 v 2 h -1 v 2 h -1 v 2 h -1 v 2 h -1 v 2 h -1 v 2 h -1 v 2 h -1 v 2 h -1 v 2 h -1 v 2 h -1 v 2 h -1 v 2 h -1 v 2 h -1 v 2 h -1 v 2 h -1 v 2 h -1 v 2 h -1 v 2 h -1 v 1 h -1 v 2 h -1 v 2 h -1 v 2 h -1 v 2 h -1 v 1 h -1 v 2 h -1 v 2 h -1 v 1 h -1 v 2 h -1 v 2 h -1 v 1 h -1 v 2 h -1 v 2 h -1 v 2 h -1 v 1 h -1 v 2 h -1 v 1 h -1 v 2 h -1 v 1 h -1 v 2 h -1 v 1 h -1 v 2 h -1 v 2 h -1 v 1 h -1 v 2 h -1 v 1 h -1 v 2 h -1 v 1 h -1 v 2 h -1 v 1 h -1 v 2 h -1 v 1 h -1 v 2 h -1 v 1 h -1 v 2 h -1 v 1 h -1 v 1 h -1 v 2 h -1 v 1 h -1 v 2 h -1 v 1 h -1 v 1 h -1 v 2 h -1 v 1 h -1 v 1 h -1 v 2 h -1 v 1 h -1 v 2 h -1 v 1 h -1 v 1 h -1 v 2 h -1 v 1 h -1 v 1 h -1 v 2 h -1 v 1 h -1 v 1 h -1 v 2 h -1 v 1 h -1 v 1 h -1 v 1 h -1 v 2 h -1 v 1 h -1 v 1 h -1 v 1 h -1 v 2 h -1 v 1 h -1 v 1 h -1 v 1 h -1 v 2 h -1 v 1 h -1 v 1 h -1 v 1 h -1 v 2 h -1 v 1 h -1 v 1 h -1 v 1 h -1 v 1 h -1 v 1 h -1 v 2 h -1 v 1 h -1 v 1 h -1 v 1 h -1 v 1 h -1 v 1 h -1 v 1 h -1 v 2 h -1 v 1 h -1 v 1 h -1 v 1 h -1 v 1 h -1 v 1 h -1 v 1 h -1 v 2 h -1 v 1 h -1 v 1 h -1 v 1 h -1 v 1 h -1 v 1 h -1 v 1 h -1 v 1 h -1 v 1 h -1 v 1 h -1 v 1 h -1 v 1 h -1 v 1 h -1 v 2 h -1 v 1 h -1 v 1 h -1 v 1 h -1 v 1 h -1 v 1 h -1 v 1 h -1 v 1 h -1 v 1 h -1 v 1 h -1 v 1 h -1 v 1 h -1 v 1 h -1 v 1 h -1 v 1 h -1 v 1 h -1 v 1 h -1 v 1 h -1 v 1 h -1 v 1 h -1 v 1 h -1 v 1 h -1 v 1 h -1 v 1 h -1 v 1 h -1 v 1 h -1 v 1 h -1 v 1 h -1 v 1 h -1 v 1 h -1 v 1 h -1 v 1 h -1 v 1 h -1 v 1 h -1 v 1 h -1 v 1 h -2 v 1 h -1 v 1 h -1 v 1 h -1 v 1 h -1 v 1 h -1 v 1 h -1 v 1 h -1 v 1 h -1 v 1 h -1 v 1 h -1 v 1 h -1 v 1 h -1 v 1 h -2 v 1 h -1 v 1 h -1 v 1 h -1 v 1 h -1 v 1 h -1 v 1 h -1 v 1 h -2 v 1 h -1 v 1 h -1 v 1 h -1 v 1 h -1 v 1 h -1 v 1 h -1 v 1 h -1 v 1 h -2 v 1 h -1 v 1 h -1 v 1 h -1 v 1 h -1 v 1 h -2 v 1 h -1 v 1 h -1 v 1 h -1 v 1 h -1 v 1 h -2 v 1 h -1 v 1 h -1 v 1 h -1 v 1 h -1 v 1 h -2 v 1 h -1 v 1 h -1 v 1 h -2 v 1 h -1 v 1 h -1 v 1 h -1 v 1 h -2 v 1 h -1 v 1 h -1 v 1 h -1 v 1 h -2 v 1 h -1 v 1 h -1 v 1 h -2 v 1 h -1 v 1 h -1 v 1 h -2 v 1 h -1 v 1 h -1 v 1 h -1 v 1 h -2 v 1 h -1 v 1 h -2 v 1 h -1 v 1 h -1 v 1 h -2 v 1 h -1 v 1 h -1 v 1 h -2 v 1 h -1 v 1 h -2 v 1 h -1 v 1 h -2 v 1 h -1 v 1 h -2 v 1 h -1 v 1 h -2 v 1 h -1 v 1 h -1 v 1 h 24 v 1 h 72 v -1 h 42 v -1 h 26 v -1 h 18 v -1 h 17 v -1 h 13 v -1 h 12 v -1 h 11 v -1 h 9 v -1 h 8 v -1 h 9 v -1 h 8 v -1 h 6 v -1 h 6 v -1 h 6 v -1 h 6 v -1 h 5 v -1 h 5 v -1 h 4 v -1 h 5 v -1 h 4 v -1 h 4 v -1 h 3 v -1 h 4 v -1 h 3 v -1 h 3 v -1 h 3 v -1 h 3 v -1 h 3 v -1 h 3 v -1 h 2 v -1 h 3 v -1 h 3 v -1 h 3 v -1 h 3 v -1 h 2 v -1 h 3 v -1 h 2 v -1 h 3 v -1 h 2 v -1 h 2 v -1 h 2 v -1 h 3 v -1 h 2 v -1 h 2 v -1 h 3 v -1 h 2 v -1 h 2 v -1 h 2 v -1 h 3 v -1 h 2 v -1 h 2 v -1 h 2 v -1 h 2 v -1 h 2 v -1 h 2 v -1 h 2 v -1 h 1 v -1 h 2 v -1 h 2 v -1 h 2 v -1 h 2 v -1 h 2 v -1 h 1 v -1 h 2 v -1 h 2 v -1 h 2 v -1 h 2 v -1 h 2 v -1 h 1 v -1 h 2 v -1 h 2 v -1 h 1 v -1 h 2 v -1 h 1 v -1 h 2 v -1 h 1 v -1 h 2 v -1 h 1 v -1 h 2 v -1 h 1 v -1 h 2 v -1 h 1 v -1 h 2 v -1 h 1 v -1 h 2 v -1 h 1 v -1 h 2 v -1 h 1 v -1 h 2 v -1 h 1 v -1 h 1 v -1 h 1 v -1 h 2 v -1 h 1 v -1 h 1 v -1 h 1 v -1 h 2 v -1 h 1 v -1 h 1 v -1 h 1 v -1 h 2 v -1 h 1 v -1 h 1 v -1 h 1 v -1 h 2 v -1 h 1 v -1 h 1 v -1 h 1 v -1 h 2 v -1 h 1 v -1 h 1 v -1 h 1 v -1 h 1 v -1 h 1 v -1 h 1 v -1 h 1 v -1 h 1 v -1 h 1 v -1 h 1 v -1 h 2 v -1 h 1 v -1 h 1 v -1 h 1 v -1 h 1 v -1 h 1 v -1 h 1 v -1 h 1 v -1 h 1 v -1 h 1 v -1 h 1 v -1 h 1 v -1 h 1 v -1 h 1 v -1 h 1 v -1 h 1 v -1 h 1 v -1 h 1 v -1 h 1 v -1 h 1 v -1 h 1 v -2 h 1 v -1 h 1 v -1 h 1 v -1 h 1 v -1 h 1 v -1 h 1 v -1 h 1 v -1 h 1 v -2 h 1 v -1 h 1 v -1 h 1 v -1 h 1 v -1 h 1 v -1 h 1 v -1 h 1 v -2 h 1 v -1 h 1 v -1 h 1 v -1 h 1 v -2 h 1 v -1 h 1 v -1 h 1 v -2 h 1 v -1 h 1 v -1 h 1 v -2 h 1 v -1 h 1 v -1 h 1 v -2 h 1 v -1 h 1 v -1 h 1 v -2 h 1 v -1 h 1 v -1 h 1 v -2 h 1 v -1 h 1 v -1 h 1 v -2 h 1 v -1 h 1 v -2 h 1 v -1 h 1 v -2 h 1 v -1 h 1 v -2 h 1 v -2 h 1 v -1 h 1 v -2 h 1 v -1 h 1 v -2 h 1 v -1 h 1 v -2 h 1 v -1 h 1 v -2 h 1 v -2 h 1 v -1 h 1 v -2 h 1 v -2 h 1 v -1 h 1 v -2 h 1 v -2 h 1 v -2 h 1 v -2 h 1 v -2 h 1 v -1 h 1 v -2 h 1 v -2 h 1 v -2 h 1 v -2 h 1 v -1 h 1 v -2 h 1 v -2 h 1 v -2 h 1 v -2 h 1 v -2 h 1 v -2 h 1 v -2 h 1 v -2 h 1 v -3 h 1 v -2 h 1 v -2 h 1 v -2 h 1 v -2 h 1 v -2 h 1 v -2 h 1 v -2 h 1 v -2 h 1 v -3 h 1 v -2 h 1 v -3 h 1 v -2 h 1 v -3 h 1 v -2 h 1 v -2 h 1 v -3 h 1 v -2 h 1 v -3 h 1 v -2 h 1 v -2 h 1 v -3 h 1 v -3 h 1 v -3 h 1 v -2 h 1 v -3 h 1 v -3 h 1 v -3 h 1 v -2 h 1 v -3 h 1 v -3 h 1 v -3 h 1 v -3 h 1 v -3 h 1 v -3 h 1 v -3 h 1 v -3 h 1 v -3 h 1 v -3 h 1 v -4 h 1 v -3 h 1 v -3 h 1 v -3 h 1 v -3 h 1 v -4 h 1 v -3 h 1 v -4 h 1 v -4 h 1 v -3 h 1 v -4 h 1 v -3 h 1 v -4 h 1 v -3 h 1 v -4 h 1 v -4 h 1 v -4 h 1 v -4 h 1 v -4 h 1 v -4 h 1 v -4 h 1 v -4 h 1 v -4 h 1 v -4 h 1 v -5 h 1 v -4 h 1 v -4 h 1 v -4 h 1 v -4 h 1 v -4 h 1 v -4 h 1 v -4 h 1 v -4 h 1 v -4 h 1 v -4 h 1 v -4 h 1 v -4 h 1 v -4 h 1 v -4 h 1 v -4 h 1 v -4 h 1 v -4 h 1 v -4 h 1 v -4 h 1 v -4 h 1 v -4 h 1 v -4 h 1 v -4 h 1 v -4 h 1 v -4 h 1 v -4 h 1 v -3 h 1 v -4 h 1 v -4 h 1 v -4 h 1 v -4 h 1 v -4 h 1 v -3 h 1 v -4 h 1 v -4 h 1 v -4 h 1 v -4 h 1 v -3 h 1 v -4 h 1 v -4 h 1 v -4 h 1 v -4 h 1 v -3 h 1 v -4 h 1 v -4 h 1 v -3 h 1 v -4 h 1 v -4 h 1 v -4 h 1 v -3 h 1 v -4 h 1 v -4 h 1 v -3 h 1 v -4 h 1 v -4 h 1 v -3 h 1 v -4 h 1 v -4 h 1 v -3 h 1 v -4 h 1 v -3 h 1 v -4 h 1 v -4 h 1 v -3 h 1 v -4 h 1 v -3 h 1 v -4 h 1 v -3 h 1 v -4 h 1 v -3 h 1 v -4 h 1 v -3 h 1 v -4 h 1 v -3 h 1 v -4 h 1 v -3 h 1 v -4 h 1 v -3 h 1 v -4 h 1 v -3 h 1 v -4 h 1 v -3 h 1 v -3 h 1 v -4 h 1 v -3 h 1 v -3 h 1 v -4 h 1 v -3 h 1 v -4 h 1 v -3 h 1 v -3 h 1 v -3 h 1 v -4 h 1 v -3 h 1 v -3 h 1 v -4 h 1 v -3 h 1 v -3 h 1 v -3 h 1 v -4 h 1 v -3 h 1 v -3 h 1 v -3 h 1 v -4 h 1 v -3 h 1 v -3 h 1 v -3 h 1 v -3 h 1 v -3 h 1 v -3 h 1 v -3 h 1 v -3 h 1 v -3 h 1 v -3 h 1 v -3 h 1 v -3 h 1 v -3 h 1 v -3 h 1 v -3 h 1 v -3 h 1 v -3 h 1 v -3 h 1 v -3 h 1 v -2 h 1 v -3 h 1 v -3 h 1 v -3 h 1 v -3 h 1 v -2 h 1 v -3 h 1 v -3 h 1 v -3 h 1 v -2 h 1 v -3 h 1 v -3 h 1 v -2 h 1 v -3 h 1 v -2 h 1 v -3 h 1 v -3 h 1 v -2 h 1 v -3 h 1 v -2 h 1 v -3 h 1 v -2 h 1 v -3 h 1 v -3 h 1 v -2 h 1 v -3 h 1 v -2 h 1 v -2 h 1 v -3 h 1 v -2 h 1 v -3 h 1 v -2 h 1 v -3 h 1 v -2 h 1 v -3 h 1 v -2 h 1 v -2 h 1 v -3 h 1 v -2 h 1 v -2 h 1 v -3 h 1 v -2 h 1 v -2 h 1 v -3 h 1 v -2 h 1 v -2 h 1 v -2 h 1 v -3 h 1 v -2 h 1 v -2 h 1 v -2 h 1 v -3 h 1 v -2 h 1 v -2 h 1 v -2 h 1 v -2 h 1 v -3 h 1 v -2 h 1 v -2 h 1 v -2 h 1 v -2 h 1 v -2 h 1 v -2 h 1 v -3 h 1 v -2 h 1 v -2 h 1 v -2 h 1 v -2 h 1 v -2 h 1 v -2 h 1 v -2 h 1 v -2 h 1 v -2 h 1 v -2 h 1 v -2 h 1 v -2 h 1 v -2 h 1 v -2 h 1 v -2 h 1 v -2 h 1 v -2 h 1 v -2 h 1 v -2 h 1 v -2 h 1 v -2 h 1 v -2 h 1 v -2 h 1 v -2 h 1 v -2 h 1 v -1 h 1 v -2 h 1 v -2 h 1 v -2 h 1 v -1 h 1 v -2 h 1 v -2 h 1 v -2 h 1 v -1 h 1 v -2 h 1 v -2 h 1 v -1 h 1 v -2 h 1 v -2 h 1 v -1 h 1 v -2 h 1 v -2 h 1 v -1 h 1 v -2 h 1 v -2 h 1 v -1 h 1 v -2 h 1 v -1 h 1 v -2 h 1 v -2 h 1 v -1 h 1 v -2 h 1 v -2 h 1 v -1 h 1 v -2 h 1 v -1 h 1 v -2 h 1 v -2 h 1 v -1 h 1 v -2 h 1 v -1 h 1 v -2 h 1 v -1 h 1 v -2 h 1 v -1 h 1 v -2 h 1 v -1 h 1 v -2 h 1 v -1 h 1 v -2 h 1 v -2 h 1 v -1 h 1 v -2 h 1 v -1 h 1 v -1 h 1 v -2 h 1 v -1 h 1 v -2 h 1 v -1 h 1 v -2 h 1 v -1 h 1 v -1 h 1 v -2 h 1 v -1 h 1 v -2 h 1 v -1 h 1 v -2 h 1 v -1 h 1 v -1 h 1 v -2 h 1 v -1 h 1 v -1 h 1 v -2 h 1 v -1 h 1 v -1 h 1 v -2 h 1 v -1 h 1 v -1 h 1 v -1 h 1 v -2 h 1 v -1 h 1 v -1 h 1 v -2 h 1 v -1 h 1 v -1 h 1 v -1 h 1 v -1 h 1 v -2 h 1 v -1 h 1 v -1 h 1 v -1 h 1 v -1 h 1 v -2 h 1 v -1 h 1 v -1 h 1 v -1 h 1 v -1 h 1 v -1 h 1 v -2 h 1 v -1 h 1 v -1 h 1 v -1 h 1 v -1 h 1 v -1 h 1 v -1 h 1 v -1 h 1 v -1 h 1 v -1 h 1 v -1 h 1 v -1 h 1 v -1 h 1 v -1 h 1 v -1 h 1 v -1 h 1 v -1 h 1 v -1 h 1 v -1 h 1 v -1 h 1 v -1 h 1 v -1 h 1 v -1 h 1 v -1 h 1 v -1 h 1 v -1 h 1 v -1 h 1 v -1 h 1 v -1 h 1 v -1 h 1 v -1 h 2 v -1 h 1 v -1 h 1 v -1 h 1 v -1 z m -239,406 h 1 v 1 h -1 z m -2,3 h 1 v 1 h -1 z m -1,3 v -1 h 1 v 1 h -1 v 1 h -1 v -1" /></g></g></g></g></g></svg>